# xmcd CD database file
#
# Track frame offsets:
#	150
#	6260
#	12383
#	18501
#	24690
#	30869
#	36934
#	42980
#	49553
#	55612
#	61662
#	67727
#	73726
#	79944
#	86039
#	92739
#	98802
#	104919
#	111040
#	117180
#	123301
#	129390
#	135505
#	142006
#
# Disc length: 1973 seconds
#
# Revision: 0
# Processed by: cddbd v1.5.2PL0 Copyright (c) Steve Scherf et al.
# Submitted via: CDex 1.51
#
DISCID=3f07b318
DTITLE=Achim Kohl - 2-5-1 Authentic Modern Jazz Phrasing
DYEAR=2000
DGENRE=Jazz
TTITLE0=01 Charlie Parker Tracks 1-5
TTITLE1=02 Charlie Parker Tracks 6-10
TTITLE2=03 Charlie Parker Tracks 11-15
TTITLE3=04 Charlie Parker Tracks 16-20
TTITLE4=05 Miles Davis Tracks 21-25
TTITLE5=06 Miles Davis Tracks 26-30
TTITLE6=07 Miles Davis Tracks 31-35
TTITLE7=08 John Coltrane Tracks 36-40
TTITLE8=09 John Coltrane Tracks 41-45
TTITLE9=10 John Coltrane Tracks 46-50
TTITLE10=11 Chet Baker Tracks 51-55
TTITLE11=12 Joe Henderson Tracks 56-60
TTITLE12=13 Sonny Rollins Tracks 61-64   Oscar Peterson Track 65
TTITLE13=14 Cannonball Adderley Tracks 66-70
TTITLE14=15 Cannonball Adderley Tracks 71-72   Barney Kessel Tracks 73-75
TTITLE15=16 Wes Montgomery Tracks 76-80
TTITLE16=17 Wes Montgomery Tracks 81-85
TTITLE17=18 Wes Montgomery Tracks 86-90
TTITLE18=19 Grant Green Tracks 91-94   Tal Farlow Track 95
TTITLE19=20 Tal Farlow Tracks 96-100
TTITLE20=21 Tal Farlow Tracks 101-105
TTITLE21=22 Pat Martino Tracks 106-110
TTITLE22=23 Pat Martino Tracks 111-115
TTITLE23=24 Pat Martino Tracks 116-120
EXTD=YEAR: 2000
EXTT0=
EXTT1=
EXTT2=
EXTT3=
EXTT4=
EXTT5=
EXTT6=
EXTT7=
EXTT8=
EXTT9=
EXTT10=
EXTT11=
EXTT12=
EXTT13=
EXTT14=
EXTT15=
EXTT16=
EXTT17=
EXTT18=
EXTT19=
EXTT20=
EXTT21=
EXTT22=
EXTT23=
PLAYORDER=
